<svg width="70" height="70" viewBox="0 0 70 70" fill="none" xmlns="http://www.w3.org/2000/svg">
<rect width="70" height="70" rx="16" fill="#F2785C"/>
<path d="M25.2917 48.2284C23.938 48.2284 22.6397 47.6699 21.6825 46.6759C20.7253 45.6819 20.1875 44.3337 20.1875 42.9279C20.1875 41.5221 20.7253 40.1739 21.6825 39.1799C22.6397 38.1859 23.938 37.6274 25.2917 37.6274C26.6454 37.6274 27.9436 38.1859 28.9009 39.1799C29.8581 40.1739 30.3958 41.5221 30.3958 42.9279C30.3958 44.3337 29.8581 45.6819 28.9009 46.6759C27.9436 47.6699 26.6454 48.2284 25.2917 48.2284ZM25.2917 35.3558C23.3578 35.3558 21.5031 36.1535 20.1357 37.5736C18.7682 38.9936 18 40.9196 18 42.9279C18 44.9361 18.7682 46.8621 20.1357 48.2822C21.5031 49.7022 23.3578 50.5 25.2917 50.5C27.2255 50.5 29.0802 49.7022 30.4477 48.2822C31.8151 46.8621 32.5833 44.9361 32.5833 42.9279C32.5833 40.9196 31.8151 38.9936 30.4477 37.5736C29.0802 36.1535 27.2255 35.3558 25.2917 35.3558ZM39.5833 32.3269H45.7083V29.601H41.0417L38.2125 24.6488C37.7896 23.8916 36.9583 23.3918 36.0833 23.3918C35.3979 23.3918 34.7708 23.6796 34.3333 24.149L28.9375 29.7373C28.4854 30.2067 28.2083 30.8125 28.2083 31.5697C28.2083 32.5238 28.6896 33.3264 29.4479 33.7959L34.3333 36.8702V44.4423H36.9583V34.5986L33.6771 32.0998L37.0604 28.5409L39.5833 32.3269ZM45.7083 48.2284C44.3546 48.2284 43.0564 47.6699 42.0991 46.6759C41.1419 45.6819 40.6042 44.3337 40.6042 42.9279C40.6042 41.5221 41.1419 40.1739 42.0991 39.1799C43.0564 38.1859 44.3546 37.6274 45.7083 37.6274C47.062 37.6274 48.3603 38.1859 49.3175 39.1799C50.2747 40.1739 50.8125 41.5221 50.8125 42.9279C50.8125 44.3337 50.2747 45.6819 49.3175 46.6759C48.3603 47.6699 47.062 48.2284 45.7083 48.2284ZM45.7083 35.3558C43.7745 35.3558 41.9198 36.1535 40.5523 37.5736C39.1849 38.9936 38.4167 40.9196 38.4167 42.9279C38.4167 44.9361 39.1849 46.8621 40.5523 48.2822C41.9198 49.7022 43.7745 50.5 45.7083 50.5C46.6659 50.5 47.6141 50.3041 48.4987 49.9236C49.3834 49.5431 50.1872 48.9853 50.8643 48.2822C51.5414 47.579 52.0785 46.7443 52.445 45.8256C52.8114 44.9069 53 43.9223 53 42.9279C53 41.9335 52.8114 40.9489 52.445 40.0302C52.0785 39.1115 51.5414 38.2767 50.8643 37.5736C50.1872 36.8705 49.3834 36.3127 48.4987 35.9322C47.6141 35.5516 46.6659 35.3558 45.7083 35.3558ZM41.3333 24.4519C42.7917 24.4519 43.9583 23.2404 43.9583 21.726C43.9583 20.2115 42.7917 19 41.3333 19C39.875 19 38.7083 20.2115 38.7083 21.726C38.7083 23.2404 39.875 24.4519 41.3333 24.4519Z" fill="white"/>
</svg>
