<svg width="70" height="70" viewBox="0 0 70 70" fill="none" xmlns="http://www.w3.org/2000/svg">
<rect width="70" height="70" rx="16" fill="#F2785C"/>
<path d="M27.2361 37.4444C27.8807 37.4444 28.499 37.1884 28.9548 36.7326C29.4106 36.2767 29.6667 35.6585 29.6667 35.0139C29.6667 34.3693 29.4106 33.751 28.9548 33.2952C28.499 32.8394 27.8807 32.5833 27.2361 32.5833C26.5915 32.5833 25.9733 32.8394 25.5174 33.2952C25.0616 33.751 24.8056 34.3693 24.8056 35.0139C24.8056 35.6585 25.0616 36.2767 25.5174 36.7326C25.9733 37.1884 26.5915 37.4444 27.2361 37.4444ZM37.9306 35.0139C37.9306 35.6585 37.6745 36.2767 37.2187 36.7326C36.7628 37.1884 36.1446 37.4444 35.5 37.4444C34.8554 37.4444 34.2372 37.1884 33.7813 36.7326C33.3255 36.2767 33.0694 35.6585 33.0694 35.0139C33.0694 34.3693 33.3255 33.751 33.7813 33.2952C34.2372 32.8394 34.8554 32.5833 35.5 32.5833C36.1446 32.5833 36.7628 32.8394 37.2187 33.2952C37.6745 33.751 37.9306 34.3693 37.9306 35.0139ZM43.7639 37.4444C44.4085 37.4444 45.0267 37.1884 45.4826 36.7326C45.9384 36.2767 46.1944 35.6585 46.1944 35.0139C46.1944 34.3693 45.9384 33.751 45.4826 33.2952C45.0267 32.8394 44.4085 32.5833 43.7639 32.5833C43.1193 32.5833 42.501 32.8394 42.0452 33.2952C41.5894 33.751 41.3333 34.3693 41.3333 35.0139C41.3333 35.6585 41.5894 36.2767 42.0452 36.7326C42.501 37.1884 43.1193 37.4444 43.7639 37.4444ZM29.6667 42.7917C29.6667 43.4363 29.4106 44.0545 28.9548 44.5103C28.499 44.9661 27.8807 45.2222 27.2361 45.2222C26.5915 45.2222 25.9733 44.9661 25.5174 44.5103C25.0616 44.0545 24.8056 43.4363 24.8056 42.7917C24.8056 42.147 25.0616 41.5288 25.5174 41.073C25.9733 40.6172 26.5915 40.3611 27.2361 40.3611C27.8807 40.3611 28.499 40.6172 28.9548 41.073C29.4106 41.5288 29.6667 42.147 29.6667 42.7917ZM35.5 45.2222C36.1446 45.2222 36.7628 44.9661 37.2187 44.5103C37.6745 44.0545 37.9306 43.4363 37.9306 42.7917C37.9306 42.147 37.6745 41.5288 37.2187 41.073C36.7628 40.6172 36.1446 40.3611 35.5 40.3611C34.8554 40.3611 34.2372 40.6172 33.7813 41.073C33.3255 41.5288 33.0694 42.147 33.0694 42.7917C33.0694 43.4363 33.3255 44.0545 33.7813 44.5103C34.2372 44.9661 34.8554 45.2222 35.5 45.2222ZM18 24.0764C18 22.4648 18.6402 20.9193 19.7797 19.7797C20.9193 18.6402 22.4648 18 24.0764 18H46.9236C48.5352 18 50.0807 18.6402 51.2203 19.7797C52.3598 20.9193 53 22.4648 53 24.0764V46.9236C53 48.5352 52.3598 50.0807 51.2203 51.2203C50.0807 52.3598 48.5352 53 46.9236 53H24.0764C22.4648 53 20.9193 52.3598 19.7797 51.2203C18.6402 50.0807 18 48.5352 18 46.9236V24.0764ZM24.0764 20.4306C23.1095 20.4306 22.1821 20.8147 21.4984 21.4984C20.8147 22.1821 20.4306 23.1095 20.4306 24.0764V25.7778H50.5694V24.0764C50.5694 23.1095 50.1853 22.1821 49.5016 21.4984C48.8179 20.8147 47.8905 20.4306 46.9236 20.4306H24.0764ZM20.4306 46.9236C20.4306 47.8905 20.8147 48.8179 21.4984 49.5016C22.1821 50.1853 23.1095 50.5694 24.0764 50.5694H46.9236C47.8905 50.5694 48.8179 50.1853 49.5016 49.5016C50.1853 48.8179 50.5694 47.8905 50.5694 46.9236V28.2083H20.4306V46.9236Z" fill="white"/>
</svg>
