<svg width="70" height="70" viewBox="0 0 70 70" fill="none" xmlns="http://www.w3.org/2000/svg">
<rect width="70" height="70" rx="16" fill="#F2785C"/>
<path d="M50.9537 48.6364C50.9537 48.998 50.8116 49.3449 50.5586 49.6006C50.3057 49.8563 49.9626 50 49.6049 50H25.327C24.9692 50 24.6262 49.8563 24.3732 49.6006C24.1203 49.3449 23.9782 48.998 23.9782 48.6364C23.9782 48.2747 24.1203 47.9279 24.3732 47.6721C24.6262 47.4164 24.9692 47.2727 25.327 47.2727H49.6049C49.9626 47.2727 50.3057 47.4164 50.5586 47.6721C50.8116 47.9279 50.9537 48.2747 50.9537 48.6364ZM55 35V39.0909C55 39.4526 54.8579 39.7994 54.605 40.0552C54.352 40.3109 54.0089 40.4546 53.6512 40.4546H23.9445C22.4933 40.4596 21.0796 39.9889 19.9154 39.1131C18.7512 38.2372 17.8992 37.0034 17.4872 35.5966L15.11 27.6023C14.9919 27.1932 14.9685 26.7621 15.0416 26.3424C15.1147 25.9227 15.2823 25.5256 15.5315 25.1818C15.7863 24.8428 16.1152 24.5679 16.4924 24.3786C16.8697 24.1894 17.2852 24.0909 17.7064 24.0909H20.6062C20.8031 24.0913 20.9975 24.1359 21.1753 24.2214C21.3532 24.3068 21.5101 24.4311 21.6347 24.5852L24.602 28.1818H27.5019L25.9845 23.5966C25.8479 23.186 25.81 22.7483 25.874 22.3199C25.938 21.8915 26.1021 21.4847 26.3526 21.1332C26.603 20.7816 26.9328 20.4955 27.3144 20.2984C27.696 20.1014 28.1186 19.9991 28.5472 20H31.3964C31.5837 19.999 31.7692 20.038 31.9406 20.1143C32.112 20.1907 32.2655 20.3028 32.3912 20.4432L39.4048 28.1818H48.2561C50.0447 28.1818 51.76 28.9002 53.0248 30.1788C54.2895 31.4575 55 33.1917 55 35ZM52.3024 35C52.298 33.9164 51.8703 32.8785 51.1124 32.1123C50.3545 31.346 49.3279 30.9136 48.2561 30.9091H38.8147C38.6274 30.9101 38.442 30.8711 38.2706 30.7948C38.0992 30.7184 37.9456 30.6064 37.82 30.4659L30.8064 22.7273H28.5472L30.6546 29.1193C30.7206 29.3243 30.7382 29.5421 30.706 29.7552C30.6738 29.9683 30.5927 30.1709 30.4692 30.3466C30.3446 30.5224 30.18 30.6654 29.9892 30.7633C29.7985 30.8612 29.5872 30.9112 29.3733 30.9091H23.9782C23.7813 30.9087 23.5869 30.8641 23.4091 30.7787C23.2312 30.6932 23.0744 30.5689 22.9497 30.4148L19.9824 26.8182H17.6895L20.0667 34.8125C20.3146 35.6569 20.8264 36.3972 21.5255 36.9227C22.2246 37.4482 23.0733 37.7305 23.9445 37.7273H52.3024V35Z" fill="white"/>
</svg>
